<?xml version="1.0" encoding="utf-8"?>
<!-- Generator: Adobe Illustrator 16.0.0, SVG Export Plug-In . SVG Version: 6.00 Build 0)  -->
<!DOCTYPE svg PUBLIC "-//W3C//DTD SVG 1.1//EN" "http://www.w3.org/Graphics/SVG/1.1/DTD/svg11.dtd">
<svg version="1.1" id="Layer_1" xmlns="http://www.w3.org/2000/svg" xmlns:xlink="http://www.w3.org/1999/xlink" x="0px" y="0px"
	 width="25px" height="25px" viewBox="0 0 25 25" enable-background="new 0 0 25 25" xml:space="preserve">
<g>
	<path fill="#38C5F3" d="M25,23.036C25,24.12,24.122,25,23.036,25H1.963C0.879,25,0,24.12,0,23.036V1.964C0,0.879,0.879,0,1.963,0
		h21.072C24.122,0,25,0.879,25,1.964V23.036z"/>
	<g>
		<path fill="#FFFFFF" d="M11.174,12.039c0,0,1.301-0.097,1.301-1.623c0-1.527-1.064-2.271-2.414-2.271H7.579H7.506H5.624v8.53
			h1.883h0.072h2.482c0,0,2.709,0.085,2.709-2.518C12.77,14.157,12.889,12.039,11.174,12.039z M7.579,9.66h2.164h0.318
			c0,0,0.604,0,0.604,0.888c0,0.889-0.354,1.017-0.758,1.017H7.579V9.66z M9.936,15.159c-0.066,0.001-0.121,0-0.158,0H7.579v-2.28
			h2.482c0,0,0.9-0.012,0.9,1.171C10.961,15.048,10.29,15.15,9.936,15.159z"/>
		<path fill="#FFFFFF" d="M16.385,10.314c-3.279,0-3.277,3.278-3.277,3.278s-0.225,3.261,3.277,3.261c0,0,2.918,0.166,2.918-2.269
			h-1.5c0,0,0.049,0.917-1.367,0.917c0,0-1.502,0.101-1.502-1.484h4.42C19.354,14.018,19.838,10.314,16.385,10.314z M14.918,12.879
			c0,0,0.182-1.314,1.5-1.314s1.301,1.314,1.301,1.314H14.918z"/>
		<rect x="14.549" y="8.647" fill="#FFFFFF" width="3.52" height="1.05"/>
	</g>
</g>
</svg>
