<?xml version="1.0" encoding="utf-8"?>
<!-- Generator: Adobe Illustrator 16.0.0, SVG Export Plug-In . SVG Version: 6.00 Build 0)  -->
<!DOCTYPE svg PUBLIC "-//W3C//DTD SVG 1.1//EN" "http://www.w3.org/Graphics/SVG/1.1/DTD/svg11.dtd">
<svg version="1.1" id="Layer_1" xmlns="http://www.w3.org/2000/svg" xmlns:xlink="http://www.w3.org/1999/xlink" x="0px" y="0px"
	 width="25px" height="25px" viewBox="0 0 25 25" enable-background="new 0 0 25 25" xml:space="preserve">
<g>
	<path fill="#38C5F3" d="M25,23.036C25,24.12,24.121,25,23.037,25H1.964C0.88,25,0,24.12,0,23.036V1.964C0,0.879,0.88,0,1.964,0
		h21.072C24.121,0,25,0.879,25,1.964V23.036z"/>
	<path fill="#FFFFFF" d="M15.607,10.144h-2.115V8.756c0-0.521,0.344-0.643,0.588-0.643s1.494,0,1.494,0V5.821l-2.057-0.008
		c-2.283,0-2.803,1.709-2.803,2.803v1.527h-1.32v2.361h1.32c0,3.031,0,6.682,0,6.682h2.777c0,0,0-3.688,0-6.682h1.873L15.607,10.144
		z"/>
</g>
</svg>
