<?xml version="1.0" encoding="utf-8"?>
<!-- Generator: Adobe Illustrator 16.0.0, SVG Export Plug-In . SVG Version: 6.00 Build 0)  -->
<!DOCTYPE svg PUBLIC "-//W3C//DTD SVG 1.1//EN" "http://www.w3.org/Graphics/SVG/1.1/DTD/svg11.dtd">
<svg version="1.1" id="Layer_1" xmlns="http://www.w3.org/2000/svg" xmlns:xlink="http://www.w3.org/1999/xlink" x="0px" y="0px"
	 width="25px" height="25px" viewBox="0 0 25 25" enable-background="new 0 0 25 25" xml:space="preserve">
<g>
	<path fill="#38C5F3" d="M25,23.036C25,24.12,24.12,25,23.036,25H1.964C0.879,25,0,24.12,0,23.036V1.964C0,0.879,0.879,0,1.964,0
		h21.072C24.12,0,25,0.879,25,1.964V23.036z"/>
	<g>
		<path fill="#FFFFFF" d="M19.108,11.335h-2.08V9.256c0-0.158-0.127-0.287-0.287-0.287h-0.592c-0.158,0-0.287,0.129-0.287,0.287
			v2.079h-2.08c-0.158,0-0.287,0.13-0.287,0.288v0.592c0,0.16,0.129,0.289,0.287,0.289h2.08v2.079c0,0.159,0.129,0.287,0.287,0.287
			h0.592c0.16,0,0.287-0.128,0.287-0.287v-2.079h2.08c0.158,0,0.287-0.129,0.287-0.289v-0.592
			C19.395,11.465,19.266,11.335,19.108,11.335z"/>
		<path fill="#FFFFFF" d="M12.119,13.158c-0.438-0.31-0.836-0.764-0.842-0.903c0-0.254,0.023-0.376,0.592-0.819
			c0.739-0.578,1.145-1.336,1.145-2.138c0-0.727-0.223-1.372-0.602-1.825h0.295c0.059,0,0.119-0.019,0.168-0.055l0.818-0.593
			c0.102-0.071,0.145-0.202,0.104-0.32c-0.037-0.119-0.148-0.199-0.273-0.199H9.865c-0.398,0-0.805,0.07-1.205,0.207
			c-1.334,0.46-2.266,1.596-2.266,2.763c0,1.651,1.281,2.904,2.99,2.943c-0.033,0.132-0.049,0.261-0.049,0.388
			c0,0.253,0.064,0.495,0.197,0.729c-0.016,0-0.031,0-0.047,0c-1.631,0-3.104,0.8-3.664,1.991c-0.145,0.31-0.219,0.623-0.219,0.932
			c0,0.301,0.078,0.59,0.229,0.861c0.352,0.629,1.105,1.116,2.125,1.374c0.527,0.133,1.092,0.201,1.68,0.201
			c0.527,0,1.029-0.069,1.496-0.203c1.45-0.422,2.387-1.488,2.387-2.721C13.52,14.588,13.141,13.88,12.119,13.158z M7.5,15.865
			c0-0.86,1.092-1.615,2.338-1.615l0.033,0.001c0.271,0.002,0.535,0.042,0.785,0.119c0.084,0.06,0.166,0.115,0.246,0.169
			c0.576,0.393,0.959,0.652,1.064,1.068c0.025,0.105,0.037,0.21,0.037,0.312c0,1.07-0.799,1.614-2.375,1.614
			C8.434,17.534,7.5,16.801,7.5,15.865z M8.633,7.738c0.193-0.223,0.449-0.339,0.736-0.339H9.4c0.809,0.024,1.582,0.925,1.725,2.008
			c0.08,0.607-0.055,1.178-0.359,1.525c-0.195,0.223-0.447,0.341-0.744,0.341c0,0,0,0-0.002,0h-0.012
			c-0.793-0.024-1.582-0.961-1.725-2.043C8.203,8.625,8.332,8.082,8.633,7.738z"/>
	</g>
</g>
</svg>
