<svg id="Layer_1" data-name="Layer 1" xmlns="http://www.w3.org/2000/svg" viewBox="0 0 25 25"><defs><style>.cls-1{fill:#38c5f3;}.cls-2{fill:#fff;}</style></defs><title>Prancheta 1</title><path class="cls-1" d="M25,23a2,2,0,0,1-2,2H2a2,2,0,0,1-2-2V2A2,2,0,0,1,2,0H23a2,2,0,0,1,2,2Z"/><path class="cls-2" d="M12.5,5.65H9.7a5.28,5.28,0,0,0-1.7.4,3.17,3.17,0,0,0-1.2.8A3.17,3.17,0,0,0,6,8.05a3.69,3.69,0,0,0-.3,1.7v5.6a4.31,4.31,0,0,0,.3,1.7,3.17,3.17,0,0,0,.8,1.2,3.17,3.17,0,0,0,1.2.8,3.69,3.69,0,0,0,1.7.3h5.6a4.31,4.31,0,0,0,1.7-.3,3.17,3.17,0,0,0,1.2-.8,4.18,4.18,0,0,0,.8-1.2,3.69,3.69,0,0,0,.3-1.7V9.75a4.31,4.31,0,0,0-.3-1.7,3.17,3.17,0,0,0-.8-1.2,3.17,3.17,0,0,0-1.2-.8,3.69,3.69,0,0,0-1.7-.3,16.48,16.48,0,0,0-2.8-.1Zm0,1.3h2.8a3.47,3.47,0,0,1,1.3.2,2.1,2.1,0,0,1,1.3,1.3,3.47,3.47,0,0,1,.2,1.3v5.6a3.47,3.47,0,0,1-.2,1.3A2.1,2.1,0,0,1,16.6,18a3.09,3.09,0,0,1-1.3.2H9.7A3.47,3.47,0,0,1,8.4,18a2.1,2.1,0,0,1-1.3-1.3,3.47,3.47,0,0,1-.2-1.3V9.75a3.47,3.47,0,0,1,.2-1.3,2.1,2.1,0,0,1,1.3-1.3A3.47,3.47,0,0,1,9.7,7h2.8"/><path class="cls-2" d="M12.5,14.85a2.3,2.3,0,1,1,2.3-2.3,2.26,2.26,0,0,1-2.3,2.3Zm0-5.8a3.5,3.5,0,1,0,3.5,3.5,3.42,3.42,0,0,0-3.5-3.5Z"/><path class="cls-2" d="M17,8.85a.8.8,0,1,1-.8-.8.86.86,0,0,1,.8.8Z"/></svg>