<?xml version="1.0" encoding="utf-8"?>
<!-- Generator: Adobe Illustrator 16.0.0, SVG Export Plug-In . SVG Version: 6.00 Build 0)  -->
<!DOCTYPE svg PUBLIC "-//W3C//DTD SVG 1.1//EN" "http://www.w3.org/Graphics/SVG/1.1/DTD/svg11.dtd">
<svg version="1.1" id="Layer_1" xmlns="http://www.w3.org/2000/svg" xmlns:xlink="http://www.w3.org/1999/xlink" x="0px" y="0px"
	 width="25px" height="25px" viewBox="0 0 25 25" enable-background="new 0 0 25 25" xml:space="preserve">
<g>
	<path fill="#38C5F3" d="M25,23.036C25,24.12,24.122,25,23.036,25H1.965C0.879,25,0,24.12,0,23.036V1.964C0,0.879,0.879,0,1.965,0
		h21.07C24.122,0,25,0.879,25,1.964V23.036z"/>
	<g>
		<path fill="#FFFFFF" d="M13.016,11.826v-0.021c-0.004,0.006-0.008,0.014-0.014,0.021H13.016z"/>
		<path fill="#FFFFFF" d="M18.331,5.616H6.67c-0.559,0-1.01,0.441-1.01,0.986v11.796c0,0.543,0.451,0.986,1.01,0.986h11.66
			c0.559,0,1.01-0.443,1.01-0.986V6.602C19.34,6.057,18.889,5.616,18.331,5.616z M9.807,17.141H7.741v-6.215h2.066V17.141z
			 M8.774,10.075H8.76c-0.693,0-1.143-0.477-1.143-1.073c0-0.61,0.463-1.074,1.17-1.074S9.93,8.391,9.944,9.001
			C9.944,9.598,9.495,10.075,8.774,10.075z M17.258,17.141h-2.066v-3.325c0-0.836-0.299-1.406-1.047-1.406
			c-0.57,0-0.91,0.385-1.061,0.756c-0.055,0.133-0.068,0.318-0.068,0.504v3.472H10.95c0,0,0.027-5.634,0-6.215h2.066v0.88
			c0.275-0.424,0.766-1.027,1.863-1.027c1.359,0,2.379,0.889,2.379,2.799V17.141z"/>
	</g>
</g>
</svg>
