<?xml version="1.0" encoding="utf-8"?>
<!-- Generator: Adobe Illustrator 16.0.0, SVG Export Plug-In . SVG Version: 6.00 Build 0)  -->
<!DOCTYPE svg PUBLIC "-//W3C//DTD SVG 1.1//EN" "http://www.w3.org/Graphics/SVG/1.1/DTD/svg11.dtd">
<svg version="1.1" id="Layer_1" xmlns="http://www.w3.org/2000/svg" xmlns:xlink="http://www.w3.org/1999/xlink" x="0px" y="0px"
	 width="25px" height="25px" viewBox="0 0 25 25" enable-background="new 0 0 25 25" xml:space="preserve">
<g>
	<path fill="#38C5F3" d="M25,23.036C25,24.12,24.121,25,23.036,25H1.964C0.879,25,0,24.12,0,23.036V1.964C0,0.879,0.879,0,1.964,0
		h21.071C24.121,0,25,0.879,25,1.964V23.036z"/>
	<path fill="#FFFFFF" d="M12.824,5.61c-3.762,0-5.658,2.696-5.658,4.945c0,1.361,0.516,2.573,1.621,3.024
		c0.182,0.072,0.344,0.002,0.396-0.199c0.037-0.139,0.123-0.488,0.162-0.635c0.053-0.199,0.031-0.268-0.113-0.441
		c-0.32-0.375-0.523-0.863-0.523-1.553c0-2,1.496-3.789,3.896-3.789c2.127,0,3.295,1.298,3.295,3.032c0,2.283-1.01,4.208-2.51,4.208
		c-0.828,0-1.449-0.686-1.25-1.525c0.238-1.002,0.699-2.084,0.699-2.808c0-0.647-0.348-1.188-1.068-1.188
		c-0.846,0-1.525,0.876-1.525,2.05c0,0.747,0.252,1.252,0.252,1.252s-0.867,3.67-1.018,4.313c-0.303,1.281-0.047,2.85-0.025,3.008
		c0.014,0.094,0.135,0.117,0.189,0.045c0.078-0.102,1.086-1.346,1.428-2.59c0.098-0.352,0.559-2.176,0.559-2.176
		c0.273,0.525,1.078,0.986,1.934,0.986c2.545,0,4.27-2.319,4.27-5.423C17.833,7.795,15.845,5.61,12.824,5.61z"/>
</g>
</svg>
