<?xml version="1.0" encoding="utf-8"?>
<!-- Generator: Adobe Illustrator 16.0.0, SVG Export Plug-In . SVG Version: 6.00 Build 0)  -->
<!DOCTYPE svg PUBLIC "-//W3C//DTD SVG 1.1//EN" "http://www.w3.org/Graphics/SVG/1.1/DTD/svg11.dtd">
<svg version="1.1" id="Layer_1" xmlns="http://www.w3.org/2000/svg" xmlns:xlink="http://www.w3.org/1999/xlink" x="0px" y="0px"
	 width="25px" height="25px" viewBox="0 0 25 25" enable-background="new 0 0 25 25" xml:space="preserve">
<g>
	<path fill="#38C5F3" d="M25,23.036C25,24.12,24.122,25,23.036,25H1.965C0.879,25,0,24.12,0,23.036V1.964C0,0.879,0.879,0,1.965,0
		h21.07C24.122,0,25,0.879,25,1.964V23.036z"/>
	<path fill="#FFFFFF" d="M5.641,12.933c1.715,0,3.324,0.669,4.535,1.887c1.213,1.218,1.881,2.839,1.881,4.566h2.641
		c0-5.015-4.062-9.095-9.057-9.095V12.933z M5.646,8.252c6.106,0,11.075,4.996,11.075,11.137h2.641
		c0-7.598-6.154-13.777-13.716-13.777V8.252z M9.297,17.544c0,1.009-0.818,1.828-1.829,1.828s-1.829-0.819-1.829-1.828
		c0-1.011,0.818-1.829,1.829-1.829S9.297,16.533,9.297,17.544z"/>
</g>
</svg>
