<?xml version="1.0" encoding="utf-8"?>
<!-- Generator: Adobe Illustrator 16.0.0, SVG Export Plug-In . SVG Version: 6.00 Build 0)  -->
<!DOCTYPE svg PUBLIC "-//W3C//DTD SVG 1.1//EN" "http://www.w3.org/Graphics/SVG/1.1/DTD/svg11.dtd">
<svg version="1.1" id="Layer_1" xmlns="http://www.w3.org/2000/svg" xmlns:xlink="http://www.w3.org/1999/xlink" x="0px" y="0px"
	 width="60px" height="89px" viewBox="0 0 60 89" enable-background="new 0 0 60 89" xml:space="preserve">
<filter  id="AI_GaussianBlur_4">
	<feGaussianBlur  stdDeviation="4"></feGaussianBlur>
</filter>
<g>
	<g opacity="0.5" filter="url(#AI_GaussianBlur_4)">
		<path fill="#010101" d="M52,9.001H7.669c-1.559,0-2.834,1.275-2.834,2.835v6.126v40.356l25,24.682l25-24.682V11.836
			C54.835,10.276,53.56,9.001,52,9.001z"/>
	</g>
	<g>
		<g>
			<path fill="#F067A6" d="M55,6.001H13.107h-2.438H5c-1.565,0-2.834,1.27-2.834,2.835v9.582h5.67v36.9l25,24.682l25-24.682V8.836
				C57.835,7.276,56.56,6.001,55,6.001z"/>
			<linearGradient id="SVGID_1_" gradientUnits="userSpaceOnUse" x1="5.0005" y1="18.418" x2="5.0005" y2="6.001">
				<stop  offset="0.008" style="stop-color:#989798"/>
				<stop  offset="1" style="stop-color:#010101"/>
			</linearGradient>
			<path opacity="0.4" fill="url(#SVGID_1_)" d="M5,6.001c-1.565,0-2.834,1.27-2.834,2.835v9.582h5.67V8.836
				C7.835,7.271,6.566,6.001,5,6.001z"/>
			<g>
				
					<text transform="matrix(1.0129 0 0 1 20.6807 41.4136)" fill="#231F20" font-family="'Roboto Slab'" font-size="10">NEW</text>
				<g>
					<ellipse fill="#231F20" cx="13.898" cy="36.625" rx="0.938" ry="0.928"/>
					<ellipse fill="#231F20" cx="52.023" cy="36.625" rx="0.938" ry="0.928"/>
				</g>
				<g>
					
						<line fill="#010101" stroke="#231F20" stroke-width="0.9936" stroke-miterlimit="10" x1="12.834" y1="44.458" x2="52.835" y2="44.458"/>
					
						<line fill="#010101" stroke="#231F20" stroke-width="0.9936" stroke-miterlimit="10" x1="12.834" y1="28.662" x2="52.835" y2="28.662"/>
				</g>
			</g>
		</g>
		<g>
			<defs>
				<rect id="SVGID_2_" x="12.834" y="9.085" width="40.001" height="16.122"/>
			</defs>
			<clipPath id="SVGID_3_">
				<use xlink:href="#SVGID_2_"  overflow="visible"/>
			</clipPath>
			<g clip-path="url(#SVGID_3_)">
				
					<line fill="none" stroke="#231F20" stroke-width="0.845" stroke-miterlimit="10" x1="-7.446" y1="26.39" x2="18.285" y2="0.987"/>
				
					<line fill="none" stroke="#231F20" stroke-width="0.845" stroke-miterlimit="10" x1="-2.688" y1="26.39" x2="23.042" y2="0.987"/>
				<line fill="none" stroke="#231F20" stroke-width="0.845" stroke-miterlimit="10" x1="2.07" y1="26.39" x2="27.798" y2="0.987"/>
				
					<line fill="none" stroke="#231F20" stroke-width="0.845" stroke-miterlimit="10" x1="6.828" y1="26.39" x2="32.556" y2="0.987"/>
				
					<line fill="none" stroke="#231F20" stroke-width="0.845" stroke-miterlimit="10" x1="11.585" y1="26.39" x2="37.316" y2="0.987"/>
				
					<line fill="none" stroke="#231F20" stroke-width="0.845" stroke-miterlimit="10" x1="16.343" y1="26.39" x2="42.074" y2="0.987"/>
				
					<line fill="none" stroke="#231F20" stroke-width="0.845" stroke-miterlimit="10" x1="21.101" y1="26.39" x2="46.832" y2="0.987"/>
				
					<line fill="none" stroke="#231F20" stroke-width="0.845" stroke-miterlimit="10" x1="25.859" y1="26.39" x2="51.587" y2="0.987"/>
				
					<line fill="none" stroke="#231F20" stroke-width="0.845" stroke-miterlimit="10" x1="30.617" y1="26.39" x2="56.345" y2="0.987"/>
				
					<line fill="none" stroke="#231F20" stroke-width="0.845" stroke-miterlimit="10" x1="35.375" y1="26.39" x2="61.103" y2="0.987"/>
				
					<line fill="none" stroke="#231F20" stroke-width="0.845" stroke-miterlimit="10" x1="40.132" y1="26.39" x2="65.861" y2="0.987"/>
				
					<line fill="none" stroke="#231F20" stroke-width="0.845" stroke-miterlimit="10" x1="44.89" y1="26.39" x2="70.621" y2="0.987"/>
				
					<line fill="none" stroke="#231F20" stroke-width="0.845" stroke-miterlimit="10" x1="49.648" y1="26.39" x2="75.378" y2="0.987"/>
				
					<line fill="none" stroke="#231F20" stroke-width="0.845" stroke-miterlimit="10" x1="54.406" y1="26.39" x2="80.136" y2="0.987"/>
			</g>
		</g>
		<g>
			<defs>
				<polygon id="SVGID_4_" points="12.834,53.767 32.835,73.513 52.835,53.767 52.835,47.914 12.834,47.914 				"/>
			</defs>
			<clipPath id="SVGID_5_">
				<use xlink:href="#SVGID_4_"  overflow="visible"/>
			</clipPath>
			<g clip-path="url(#SVGID_5_)">
				
					<line fill="none" stroke="#231F20" stroke-width="0.845" stroke-miterlimit="10" x1="53.283" y1="66.822" x2="79.013" y2="41.419"/>
				
					<line fill="none" stroke="#231F20" stroke-width="0.845" stroke-miterlimit="10" x1="-27.598" y1="85.609" x2="17.162" y2="41.419"/>
				
					<line fill="none" stroke="#231F20" stroke-width="0.845" stroke-miterlimit="10" x1="-22.841" y1="85.609" x2="21.919" y2="41.419"/>
				
					<line fill="none" stroke="#231F20" stroke-width="0.845" stroke-miterlimit="10" x1="-18.083" y1="85.609" x2="26.677" y2="41.419"/>
				
					<line fill="none" stroke="#231F20" stroke-width="0.845" stroke-miterlimit="10" x1="-13.325" y1="85.609" x2="31.435" y2="41.419"/>
				
					<line fill="none" stroke="#231F20" stroke-width="0.845" stroke-miterlimit="10" x1="-8.567" y1="85.609" x2="36.193" y2="41.419"/>
				
					<line fill="none" stroke="#231F20" stroke-width="0.845" stroke-miterlimit="10" x1="-3.809" y1="85.609" x2="40.951" y2="41.419"/>
				
					<line fill="none" stroke="#231F20" stroke-width="0.845" stroke-miterlimit="10" x1="0.949" y1="85.609" x2="45.708" y2="41.419"/>
				
					<line fill="none" stroke="#231F20" stroke-width="0.845" stroke-miterlimit="10" x1="5.706" y1="85.609" x2="50.464" y2="41.419"/>
				
					<line fill="none" stroke="#231F20" stroke-width="0.845" stroke-miterlimit="10" x1="10.463" y1="85.609" x2="55.222" y2="41.419"/>
				
					<line fill="none" stroke="#231F20" stroke-width="0.845" stroke-miterlimit="10" x1="15.223" y1="85.609" x2="59.98" y2="41.419"/>
				
					<line fill="none" stroke="#231F20" stroke-width="0.845" stroke-miterlimit="10" x1="19.981" y1="85.609" x2="64.738" y2="41.419"/>
				
					<line fill="none" stroke="#231F20" stroke-width="0.845" stroke-miterlimit="10" x1="24.738" y1="85.609" x2="69.498" y2="41.419"/>
				
					<line fill="none" stroke="#231F20" stroke-width="0.845" stroke-miterlimit="10" x1="29.496" y1="85.609" x2="74.255" y2="41.419"/>
				
					<line fill="none" stroke="#231F20" stroke-width="0.845" stroke-miterlimit="10" x1="34.253" y1="85.609" x2="79.013" y2="41.419"/>
			</g>
		</g>
	</g>
</g>
</svg>
