<?xml version="1.0" encoding="utf-8"?>
<!-- Generator: Adobe Illustrator 16.0.0, SVG Export Plug-In . SVG Version: 6.00 Build 0)  -->
<!DOCTYPE svg PUBLIC "-//W3C//DTD SVG 1.1//EN" "http://www.w3.org/Graphics/SVG/1.1/DTD/svg11.dtd">
<svg version="1.1" id="Layer_1" xmlns="http://www.w3.org/2000/svg" xmlns:xlink="http://www.w3.org/1999/xlink" x="0px" y="0px"
	 width="25px" height="25px" viewBox="0 0 25 25" enable-background="new 0 0 25 25" xml:space="preserve">
<g>
	<path fill="#38C5F3" d="M25,23.036C25,24.12,24.121,25,23.036,25H1.964C0.879,25,0,24.12,0,23.036V1.964C0,0.879,0.879,0,1.964,0
		h21.071C24.121,0,25,0.879,25,1.964V23.036z"/>
	<path fill="#FFFFFF" d="M19.318,8.271c-0.5,0.223-1.041,0.373-1.605,0.44c0.576-0.346,1.021-0.894,1.229-1.548
		c-0.539,0.321-1.139,0.554-1.775,0.68c-0.51-0.544-1.238-0.884-2.043-0.884c-1.545,0-2.797,1.252-2.797,2.797
		c0,0.22,0.023,0.434,0.072,0.638c-2.326-0.116-4.387-1.23-5.768-2.923C6.39,7.884,6.251,8.365,6.251,8.877
		c0,0.971,0.494,1.827,1.246,2.329c-0.459-0.015-0.891-0.141-1.268-0.35c0,0.011,0,0.023,0,0.034c0,1.356,0.963,2.487,2.244,2.744
		c-0.234,0.064-0.482,0.099-0.738,0.099c-0.18,0-0.355-0.019-0.525-0.051c0.355,1.11,1.389,1.921,2.613,1.943
		c-0.957,0.75-2.164,1.197-3.475,1.197c-0.227,0-0.449-0.014-0.668-0.038c1.238,0.793,2.709,1.256,4.289,1.256
		c5.146,0,7.961-4.263,7.961-7.96c0-0.121-0.002-0.242-0.008-0.361C18.468,9.324,18.945,8.832,19.318,8.271z"/>
</g>
</svg>
