<?xml version="1.0" encoding="utf-8"?>
<!-- Generator: Adobe Illustrator 16.0.0, SVG Export Plug-In . SVG Version: 6.00 Build 0)  -->
<!DOCTYPE svg PUBLIC "-//W3C//DTD SVG 1.1//EN" "http://www.w3.org/Graphics/SVG/1.1/DTD/svg11.dtd">
<svg version="1.1" id="Layer_1" xmlns="http://www.w3.org/2000/svg" xmlns:xlink="http://www.w3.org/1999/xlink" x="0px" y="0px"
	 width="25px" height="25px" viewBox="0 0 25 25" enable-background="new 0 0 25 25" xml:space="preserve">
<g>
	<path fill="#38C5F3" d="M25,23.036C25,24.12,24.121,25,23.036,25H1.964C0.879,25,0,24.12,0,23.036V1.964C0,0.879,0.879,0,1.964,0
		h21.071C24.121,0,25,0.879,25,1.964V23.036z"/>
	<path fill="#FFFFFF" d="M5.65,9.775l0.556,0.73c0,0,1.147-0.905,1.53-0.453c0.383,0.453,1.843,5.912,2.331,6.92
		c0.425,0.884,1.599,2.053,2.887,1.218c1.285-0.835,5.562-4.486,6.328-8.798c0.765-4.312-5.147-3.408-5.773,0.348
		c1.564-0.939,2.4,0.383,1.6,1.878c-0.799,1.495-1.529,2.469-1.912,2.469c-0.381,0-0.676-1-1.113-2.748
		c-0.453-1.807-0.45-5.062-2.33-4.694C7.98,6.994,5.65,9.775,5.65,9.775z"/>
</g>
</svg>
